# xmcd
#
# Track frame offsets: 
#        182
#        15687
#        44450
#        75587
#        89977
#        111035
#        142245
#        152715
#        170492
#        193740
#        212020
#        231982
#        253412
#        297640
#
# Disc length: 4360 seconds
#
# Revision: 4
# Processed by: cddbd v1.5.2PL0 Copyright (c) Steve Scherf et al.
# Submitted via: ExactAudioCopyFreeDBPlugin 1.0
#
DISCID=d911060e
DTITLE=Sugar Blue - Paris Blues
DYEAR=1979
DGENRE=Blues
TTITLE0=Pontiac Blues
TTITLE1=Begging The Girl To Go
TTITLE2=Dark and Hungry
TTITLE3=Shed No Tears
TTITLE4=War Zone
TTITLE5=Who's Been Talking
TTITLE6=Another Man Done Gone
TTITLE7=Don't Start Me Talkin'
TTITLE8=Help Me
TTITLE9=Key to the Highway
TTITLE10=That's Allright
TTITLE11=Cold Blooded Man
TTITLE12=Devil Woman
TTITLE13=Secret Lover
EXTD=ID3G: 0
EXTT0=
EXTT1=
EXTT2=
EXTT3=
EXTT4=
EXTT5=
EXTT6=
EXTT7=
EXTT8=
EXTT9=
EXTT10=
EXTT11=
EXTT12=
EXTT13=
PLAYORDER=
